solid Mesh
  facet normal 0.187381 -0.982287 0.000000
    outer loop
      vertex 0.309017 -0.951057 80.000000
      vertex 0.062791 -0.998027 80.000000
      vertex 0.062791 -0.998027 0.000000
    endloop
  endfacet
  facet normal 0.187381 -0.982287 0.000000
    outer loop
      vertex 0.309017 -0.951057 80.000000
      vertex 0.062791 -0.998027 0.000000
      vertex 0.309017 -0.951057 0.000000
    endloop
  endfacet
  facet normal 0.425779 -0.904827 0.000000
    outer loop
      vertex 0.309017 -0.951057 80.000000
      vertex 0.309017 -0.951057 0.000000
      vertex 0.535827 -0.844328 0.000000
    endloop
  endfacet
  facet normal 0.425779 -0.904827 0.000000
    outer loop
      vertex 0.535827 -0.844328 80.000000
      vertex 0.309017 -0.951057 80.000000
      vertex 0.535827 -0.844328 0.000000
    endloop
  endfacet
  facet normal 0.992115 0.125333 0.000000
    outer loop
      vertex 0.968583 0.248690 80.000000
      vertex 1.000000 -0.000000 0.000000
      vertex 0.968583 0.248690 0.000000
    endloop
  endfacet
  facet normal 0.637424 -0.770513 0.000000
    outer loop
      vertex 0.728969 -0.684547 80.000000
      vertex 0.535827 -0.844328 80.000000
      vertex 0.535827 -0.844328 0.000000
    endloop
  endfacet
  facet normal 0.929776 0.368125 0.000000
    outer loop
      vertex 0.968583 0.248690 80.000000
      vertex 0.968583 0.248690 0.000000
      vertex 0.876307 0.481754 0.000000
    endloop
  endfacet
  facet normal 0.992115 0.125333 0.000000
    outer loop
      vertex 0.968583 0.248690 80.000000
      vertex 1.000000 -0.000000 80.000000
      vertex 1.000000 -0.000000 0.000000
    endloop
  endfacet
  facet normal 0.637424 -0.770513 0.000000
    outer loop
      vertex 0.728969 -0.684547 80.000000
      vertex 0.535827 -0.844328 0.000000
      vertex 0.728969 -0.684547 0.000000
    endloop
  endfacet
  facet normal 0.809017 -0.587785 0.000000
    outer loop
      vertex 0.876307 -0.481754 80.000000
      vertex 0.728969 -0.684547 0.000000
      vertex 0.876307 -0.481754 0.000000
    endloop
  endfacet
  facet normal 0.929776 0.368125 0.000000
    outer loop
      vertex 0.876307 0.481754 80.000000
      vertex 0.968583 0.248690 80.000000
      vertex 0.876307 0.481754 0.000000
    endloop
  endfacet
  facet normal 0.809017 -0.587785 0.000000
    outer loop
      vertex 0.876307 -0.481754 80.000000
      vertex 0.728969 -0.684547 80.000000
      vertex 0.728969 -0.684547 0.000000
    endloop
  endfacet
  facet normal 0.929776 -0.368125 0.000000
    outer loop
      vertex 0.968583 -0.248690 80.000000
      vertex 0.876307 -0.481754 80.000000
      vertex 0.876307 -0.481754 0.000000
    endloop
  endfacet
  facet normal 0.809017 0.587785 0.000000
    outer loop
      vertex 0.728969 0.684547 80.000000
      vertex 0.876307 0.481754 0.000000
      vertex 0.728969 0.684547 0.000000
    endloop
  endfacet
  facet normal 0.637424 0.770513 0.000000
    outer loop
      vertex 0.728969 0.684547 80.000000
      vertex 0.728969 0.684547 0.000000
      vertex 0.535827 0.844328 0.000000
    endloop
  endfacet
  facet normal 0.929776 -0.368125 0.000000
    outer loop
      vertex 0.968583 -0.248690 80.000000
      vertex 0.876307 -0.481754 0.000000
      vertex 0.968583 -0.248690 0.000000
    endloop
  endfacet
  facet normal 0.809017 0.587785 0.000000
    outer loop
      vertex 0.728969 0.684547 80.000000
      vertex 0.876307 0.481754 80.000000
      vertex 0.876307 0.481754 0.000000
    endloop
  endfacet
  facet normal 0.992115 -0.125333 0.000000
    outer loop
      vertex 0.968583 -0.248690 80.000000
      vertex 0.968583 -0.248690 0.000000
      vertex 1.000000 -0.000000 0.000000
    endloop
  endfacet
  facet normal 0.992115 -0.125333 0.000000
    outer loop
      vertex 1.000000 -0.000000 80.000000
      vertex 0.968583 -0.248690 80.000000
      vertex 1.000000 -0.000000 0.000000
    endloop
  endfacet
  facet normal 0.637424 0.770513 0.000000
    outer loop
      vertex 0.535827 0.844328 80.000000
      vertex 0.728969 0.684547 80.000000
      vertex 0.535827 0.844328 0.000000
    endloop
  endfacet
  facet normal 0.425779 0.904827 0.000000
    outer loop
      vertex 0.309017 0.951057 80.000000
      vertex 0.535827 0.844328 0.000000
      vertex 0.309017 0.951057 0.000000
    endloop
  endfacet
  facet normal 0.425779 0.904827 0.000000
    outer loop
      vertex 0.309017 0.951057 80.000000
      vertex 0.535827 0.844328 80.000000
      vertex 0.535827 0.844328 0.000000
    endloop
  endfacet
  facet normal 0.187381 0.982287 0.000000
    outer loop
      vertex 0.062791 0.998027 80.000000
      vertex 0.309017 0.951057 0.000000
      vertex 0.062791 0.998027 0.000000
    endloop
  endfacet
  facet normal 0.187381 0.982287 0.000000
    outer loop
      vertex 0.062791 0.998027 80.000000
      vertex 0.309017 0.951057 80.000000
      vertex 0.309017 0.951057 0.000000
    endloop
  endfacet
  facet normal -0.062791 0.998027 0.000000
    outer loop
      vertex -0.187381 0.982287 80.000000
      vertex 0.062791 0.998027 0.000000
      vertex -0.187381 0.982287 0.000000
    endloop
  endfacet
  facet normal -0.309017 0.951057 0.000000
    outer loop
      vertex -0.187381 0.982287 80.000000
      vertex -0.187381 0.982287 0.000000
      vertex -0.425779 0.904827 0.000000
    endloop
  endfacet
  facet normal -0.062791 0.998027 0.000000
    outer loop
      vertex -0.187381 0.982287 80.000000
      vertex 0.062791 0.998027 80.000000
      vertex 0.062791 0.998027 0.000000
    endloop
  endfacet
  facet normal -0.309017 0.951057 0.000000
    outer loop
      vertex -0.425779 0.904827 80.000000
      vertex -0.187381 0.982287 80.000000
      vertex -0.425779 0.904827 0.000000
    endloop
  endfacet
  facet normal -0.535827 0.844328 0.000000
    outer loop
      vertex -0.637424 0.770513 80.000000
      vertex -0.425779 0.904827 0.000000
      vertex -0.637424 0.770513 0.000000
    endloop
  endfacet
  facet normal -0.728969 0.684547 0.000000
    outer loop
      vertex -0.637424 0.770513 80.000000
      vertex -0.637424 0.770513 0.000000
      vertex -0.809017 0.587785 0.000000
    endloop
  endfacet
  facet normal -0.535827 0.844328 0.000000
    outer loop
      vertex -0.637424 0.770513 80.000000
      vertex -0.425779 0.904827 80.000000
      vertex -0.425779 0.904827 0.000000
    endloop
  endfacet
  facet normal -0.728969 0.684547 0.000000
    outer loop
      vertex -0.809017 0.587785 80.000000
      vertex -0.637424 0.770513 80.000000
      vertex -0.809017 0.587785 0.000000
    endloop
  endfacet
  facet normal -0.876307 0.481754 0.000000
    outer loop
      vertex -0.929776 0.368125 80.000000
      vertex -0.809017 0.587785 0.000000
      vertex -0.929776 0.368125 0.000000
    endloop
  endfacet
  facet normal -0.968583 0.248690 0.000000
    outer loop
      vertex -0.929776 0.368125 80.000000
      vertex -0.929776 0.368125 0.000000
      vertex -0.992115 0.125333 0.000000
    endloop
  endfacet
  facet normal -0.876307 0.481754 0.000000
    outer loop
      vertex -0.929776 0.368125 80.000000
      vertex -0.809017 0.587785 80.000000
      vertex -0.809017 0.587785 0.000000
    endloop
  endfacet
  facet normal -0.968583 0.248690 0.000000
    outer loop
      vertex -0.992115 0.125333 80.000000
      vertex -0.929776 0.368125 80.000000
      vertex -0.992115 0.125333 0.000000
    endloop
  endfacet
  facet normal -1.000000 0.000000 0.000000
    outer loop
      vertex -0.992115 -0.125333 80.000000
      vertex -0.992115 0.125333 80.000000
      vertex -0.992115 0.125333 0.000000
    endloop
  endfacet
  facet normal -1.000000 0.000000 0.000000
    outer loop
      vertex -0.992115 -0.125333 80.000000
      vertex -0.992115 0.125333 0.000000
      vertex -0.992115 -0.125333 0.000000
    endloop
  endfacet
  facet normal -0.968583 -0.248690 0.000000
    outer loop
      vertex -0.929776 -0.368125 80.000000
      vertex -0.992115 -0.125333 80.000000
      vertex -0.992115 -0.125333 0.000000
    endloop
  endfacet
  facet normal -0.968583 -0.248690 -0.000000
    outer loop
      vertex -0.929776 -0.368125 80.000000
      vertex -0.992115 -0.125333 0.000000
      vertex -0.929776 -0.368125 0.000000
    endloop
  endfacet
  facet normal -0.876307 -0.481754 0.000000
    outer loop
      vertex -0.809017 -0.587785 80.000000
      vertex -0.929776 -0.368125 80.000000
      vertex -0.929776 -0.368125 0.000000
    endloop
  endfacet
  facet normal -0.876307 -0.481754 -0.000000
    outer loop
      vertex -0.809017 -0.587785 80.000000
      vertex -0.929776 -0.368125 0.000000
      vertex -0.809017 -0.587785 0.000000
    endloop
  endfacet
  facet normal -0.728969 -0.684547 0.000000
    outer loop
      vertex -0.637424 -0.770513 80.000000
      vertex -0.809017 -0.587785 80.000000
      vertex -0.809017 -0.587785 0.000000
    endloop
  endfacet
  facet normal -0.728969 -0.684547 -0.000000
    outer loop
      vertex -0.637424 -0.770513 80.000000
      vertex -0.809017 -0.587785 0.000000
      vertex -0.637424 -0.770513 0.000000
    endloop
  endfacet
  facet normal -0.535827 -0.844328 -0.000000
    outer loop
      vertex -0.637424 -0.770513 80.000000
      vertex -0.637424 -0.770513 0.000000
      vertex -0.425779 -0.904827 0.000000
    endloop
  endfacet
  facet normal -0.535827 -0.844328 -0.000000
    outer loop
      vertex -0.425779 -0.904827 80.000000
      vertex -0.637424 -0.770513 80.000000
      vertex -0.425779 -0.904827 0.000000
    endloop
  endfacet
  facet normal -0.309017 -0.951057 0.000000
    outer loop
      vertex -0.187381 -0.982287 80.000000
      vertex -0.425779 -0.904827 80.000000
      vertex -0.425779 -0.904827 0.000000
    endloop
  endfacet
  facet normal -0.309017 -0.951057 -0.000000
    outer loop
      vertex -0.187381 -0.982287 80.000000
      vertex -0.425779 -0.904827 0.000000
      vertex -0.187381 -0.982287 0.000000
    endloop
  endfacet
  facet normal -0.062791 -0.998027 0.000000
    outer loop
      vertex 0.062791 -0.998027 80.000000
      vertex -0.187381 -0.982287 80.000000
      vertex -0.187381 -0.982287 0.000000
    endloop
  endfacet
  facet normal -0.062791 -0.998027 -0.000000
    outer loop
      vertex 0.062791 -0.998027 80.000000
      vertex -0.187381 -0.982287 0.000000
      vertex 0.062791 -0.998027 0.000000
    endloop
  endfacet
  facet normal 0.000000 0.000000 1.000000
    outer loop
      vertex -0.929776 -0.368125 80.000000
      vertex -0.809017 -0.587785 80.000000
      vertex -0.637424 -0.770513 80.000000
    endloop
  endfacet
  facet normal 0.000000 0.000000 1.000000
    outer loop
      vertex -0.187381 -0.982287 80.000000
      vertex -0.637424 -0.770513 80.000000
      vertex -0.425779 -0.904827 80.000000
    endloop
  endfacet
  facet normal 0.000000 0.000000 1.000000
    outer loop
      vertex 0.062791 -0.998027 80.000000
      vertex -0.637424 -0.770513 80.000000
      vertex -0.187381 -0.982287 80.000000
    endloop
  endfacet
  facet normal 0.000000 0.000000 1.000000
    outer loop
      vertex 0.309017 -0.951057 80.000000
      vertex -0.992115 0.125333 80.000000
      vertex -0.992115 -0.125333 80.000000
    endloop
  endfacet
  facet normal 0.000000 0.000000 1.000000
    outer loop
      vertex 0.309017 -0.951057 80.000000
      vertex -0.992115 -0.125333 80.000000
      vertex -0.929776 -0.368125 80.000000
    endloop
  endfacet
  facet normal 0.000000 0.000000 1.000000
    outer loop
      vertex 0.309017 -0.951057 80.000000
      vertex -0.929776 -0.368125 80.000000
      vertex -0.637424 -0.770513 80.000000
    endloop
  endfacet
  facet normal 0.000000 0.000000 1.000000
    outer loop
      vertex 0.309017 -0.951057 80.000000
      vertex -0.637424 -0.770513 80.000000
      vertex 0.062791 -0.998027 80.000000
    endloop
  endfacet
  facet normal 0.000000 0.000000 1.000000
    outer loop
      vertex -0.809017 0.587785 80.000000
      vertex -0.929776 0.368125 80.000000
      vertex -0.992115 0.125333 80.000000
    endloop
  endfacet
  facet normal 0.000000 0.000000 1.000000
    outer loop
      vertex -0.809017 0.587785 80.000000
      vertex -0.992115 0.125333 80.000000
      vertex 0.309017 -0.951057 80.000000
    endloop
  endfacet
  facet normal 0.000000 0.000000 1.000000
    outer loop
      vertex 0.728969 -0.684547 80.000000
      vertex 0.309017 -0.951057 80.000000
      vertex 0.535827 -0.844328 80.000000
    endloop
  endfacet
  facet normal 0.000000 0.000000 1.000000
    outer loop
      vertex 0.876307 -0.481754 80.000000
      vertex 0.309017 -0.951057 80.000000
      vertex 0.728969 -0.684547 80.000000
    endloop
  endfacet
  facet normal 0.000000 0.000000 1.000000
    outer loop
      vertex -0.187381 0.982287 80.000000
      vertex -0.425779 0.904827 80.000000
      vertex -0.637424 0.770513 80.000000
    endloop
  endfacet
  facet normal 0.000000 0.000000 1.000000
    outer loop
      vertex 1.000000 -0.000000 80.000000
      vertex 0.876307 -0.481754 80.000000
      vertex 0.968583 -0.248690 80.000000
    endloop
  endfacet
  facet normal 0.000000 0.000000 1.000000
    outer loop
      vertex 1.000000 -0.000000 80.000000
      vertex 0.309017 -0.951057 80.000000
      vertex 0.876307 -0.481754 80.000000
    endloop
  endfacet
  facet normal 0.000000 0.000000 1.000000
    outer loop
      vertex 0.062791 0.998027 80.000000
      vertex -0.637424 0.770513 80.000000
      vertex -0.809017 0.587785 80.000000
    endloop
  endfacet
  facet normal 0.000000 0.000000 1.000000
    outer loop
      vertex 0.062791 0.998027 80.000000
      vertex -0.809017 0.587785 80.000000
      vertex 0.309017 -0.951057 80.000000
    endloop
  endfacet
  facet normal 0.000000 0.000000 1.000000
    outer loop
      vertex 0.062791 0.998027 80.000000
      vertex -0.187381 0.982287 80.000000
      vertex -0.637424 0.770513 80.000000
    endloop
  endfacet
  facet normal 0.000000 0.000000 1.000000
    outer loop
      vertex 0.062791 0.998027 80.000000
      vertex 0.309017 -0.951057 80.000000
      vertex 1.000000 -0.000000 80.000000
    endloop
  endfacet
  facet normal 0.000000 0.000000 1.000000
    outer loop
      vertex 0.968583 0.248690 80.000000
      vertex 0.062791 0.998027 80.000000
      vertex 1.000000 -0.000000 80.000000
    endloop
  endfacet
  facet normal 0.000000 0.000000 1.000000
    outer loop
      vertex 0.876307 0.481754 80.000000
      vertex 0.062791 0.998027 80.000000
      vertex 0.968583 0.248690 80.000000
    endloop
  endfacet
  facet normal 0.000000 0.000000 1.000000
    outer loop
      vertex 0.728969 0.684547 80.000000
      vertex 0.535827 0.844328 80.000000
      vertex 0.309017 0.951057 80.000000
    endloop
  endfacet
  facet normal 0.000000 0.000000 1.000000
    outer loop
      vertex 0.728969 0.684547 80.000000
      vertex 0.309017 0.951057 80.000000
      vertex 0.062791 0.998027 80.000000
    endloop
  endfacet
  facet normal 0.000000 0.000000 1.000000
    outer loop
      vertex 0.728969 0.684547 80.000000
      vertex 0.062791 0.998027 80.000000
      vertex 0.876307 0.481754 80.000000
    endloop
  endfacet
  facet normal 0.000000 0.000000 -1.000000
    outer loop
      vertex -0.637424 -0.770513 0.000000
      vertex -0.809017 -0.587785 0.000000
      vertex -0.929776 -0.368125 0.000000
    endloop
  endfacet
  facet normal 0.000000 0.000000 -1.000000
    outer loop
      vertex -0.425779 -0.904827 0.000000
      vertex -0.637424 -0.770513 0.000000
      vertex -0.187381 -0.982287 0.000000
    endloop
  endfacet
  facet normal 0.000000 0.000000 -1.000000
    outer loop
      vertex -0.187381 -0.982287 0.000000
      vertex -0.637424 -0.770513 0.000000
      vertex 0.062791 -0.998027 0.000000
    endloop
  endfacet
  facet normal 0.000000 0.000000 -1.000000
    outer loop
      vertex -0.992115 -0.125333 0.000000
      vertex -0.992115 0.125333 0.000000
      vertex 0.309017 -0.951057 0.000000
    endloop
  endfacet
  facet normal 0.000000 0.000000 -1.000000
    outer loop
      vertex -0.929776 -0.368125 0.000000
      vertex -0.992115 -0.125333 0.000000
      vertex 0.309017 -0.951057 0.000000
    endloop
  endfacet
  facet normal 0.000000 0.000000 -1.000000
    outer loop
      vertex -0.637424 -0.770513 0.000000
      vertex -0.929776 -0.368125 0.000000
      vertex 0.309017 -0.951057 0.000000
    endloop
  endfacet
  facet normal 0.000000 0.000000 -1.000000
    outer loop
      vertex 0.062791 -0.998027 0.000000
      vertex -0.637424 -0.770513 0.000000
      vertex 0.309017 -0.951057 0.000000
    endloop
  endfacet
  facet normal 0.000000 0.000000 -1.000000
    outer loop
      vertex -0.992115 0.125333 0.000000
      vertex -0.929776 0.368125 0.000000
      vertex -0.809017 0.587785 0.000000
    endloop
  endfacet
  facet normal 0.000000 0.000000 -1.000000
    outer loop
      vertex 0.309017 -0.951057 0.000000
      vertex -0.992115 0.125333 0.000000
      vertex -0.809017 0.587785 0.000000
    endloop
  endfacet
  facet normal -0.000000 0.000000 -1.000000
    outer loop
      vertex 0.535827 -0.844328 0.000000
      vertex 0.309017 -0.951057 0.000000
      vertex 0.728969 -0.684547 0.000000
    endloop
  endfacet
  facet normal -0.000000 0.000000 -1.000000
    outer loop
      vertex 0.728969 -0.684547 0.000000
      vertex 0.309017 -0.951057 0.000000
      vertex 0.876307 -0.481754 0.000000
    endloop
  endfacet
  facet normal 0.000000 0.000000 -1.000000
    outer loop
      vertex -0.637424 0.770513 0.000000
      vertex -0.425779 0.904827 0.000000
      vertex -0.187381 0.982287 0.000000
    endloop
  endfacet
  facet normal -0.000000 0.000000 -1.000000
    outer loop
      vertex 0.968583 -0.248690 0.000000
      vertex 0.876307 -0.481754 0.000000
      vertex 1.000000 -0.000000 0.000000
    endloop
  endfacet
  facet normal -0.000000 0.000000 -1.000000
    outer loop
      vertex 0.876307 -0.481754 0.000000
      vertex 0.309017 -0.951057 0.000000
      vertex 1.000000 -0.000000 0.000000
    endloop
  endfacet
  facet normal 0.000000 0.000000 -1.000000
    outer loop
      vertex -0.809017 0.587785 0.000000
      vertex -0.637424 0.770513 0.000000
      vertex 0.062791 0.998027 0.000000
    endloop
  endfacet
  facet normal 0.000000 0.000000 -1.000000
    outer loop
      vertex 0.309017 -0.951057 0.000000
      vertex -0.809017 0.587785 0.000000
      vertex 0.062791 0.998027 0.000000
    endloop
  endfacet
  facet normal 0.000000 0.000000 -1.000000
    outer loop
      vertex -0.637424 0.770513 0.000000
      vertex -0.187381 0.982287 0.000000
      vertex 0.062791 0.998027 0.000000
    endloop
  endfacet
  facet normal -0.000000 0.000000 -1.000000
    outer loop
      vertex 1.000000 -0.000000 0.000000
      vertex 0.309017 -0.951057 0.000000
      vertex 0.062791 0.998027 0.000000
    endloop
  endfacet
  facet normal 0.000000 0.000000 -1.000000
    outer loop
      vertex 1.000000 -0.000000 0.000000
      vertex 0.062791 0.998027 0.000000
      vertex 0.968583 0.248690 0.000000
    endloop
  endfacet
  facet normal 0.000000 0.000000 -1.000000
    outer loop
      vertex 0.968583 0.248690 0.000000
      vertex 0.062791 0.998027 0.000000
      vertex 0.876307 0.481754 0.000000
    endloop
  endfacet
  facet normal 0.000000 0.000000 -1.000000
    outer loop
      vertex 0.309017 0.951057 0.000000
      vertex 0.535827 0.844328 0.000000
      vertex 0.728969 0.684547 0.000000
    endloop
  endfacet
  facet normal 0.000000 0.000000 -1.000000
    outer loop
      vertex 0.062791 0.998027 0.000000
      vertex 0.309017 0.951057 0.000000
      vertex 0.728969 0.684547 0.000000
    endloop
  endfacet
  facet normal 0.000000 0.000000 -1.000000
    outer loop
      vertex 0.876307 0.481754 0.000000
      vertex 0.062791 0.998027 0.000000
      vertex 0.728969 0.684547 0.000000
    endloop
  endfacet
endsolid Mesh
