solid ascii
 facet normal 0.222272 0.0472455 0.973839
  outer loop
   vertex 0.433884 0 0.900969
   vertex 0.396373 0.176476 0.900969
   vertex 0 0 1
  endloop
 endfacet
 facet normal 0.18384 0.133567 0.973839
  outer loop
   vertex 0.396373 0.176476 0.900969
   vertex 0.290325 0.322438 0.900969
   vertex 0 0 1
  endloop
 endfacet
 facet normal 0.113619 0.196794 0.973839
  outer loop
   vertex 0.290325 0.322438 0.900969
   vertex 0.134077 0.412648 0.900969
   vertex 0 0 1
  endloop
 endfacet
 facet normal 0.0237528 0.225993 0.973839
  outer loop
   vertex 0.134077 0.412648 0.900969
   vertex -0.0453532 0.431507 0.900969
   vertex 0 0 1
  endloop
 endfacet
 facet normal -0.0702205 0.216116 0.973839
  outer loop
   vertex -0.0453532 0.431507 0.900969
   vertex -0.216942 0.375754 0.900969
   vertex 0 0 1
  endloop
 endfacet
 facet normal -0.152052 0.168871 0.973839
  outer loop
   vertex -0.216942 0.375754 0.900969
   vertex -0.351019 0.25503 0.900969
   vertex 0 0 1
  endloop
 endfacet
 facet normal -0.207592 0.0924261 0.973839
  outer loop
   vertex -0.351019 0.25503 0.900969
   vertex -0.424402 0.0902095 0.900969
   vertex 0 0 1
  endloop
 endfacet
 facet normal -0.227238 0 0.973839
  outer loop
   vertex -0.424402 0.0902095 0.900969
   vertex -0.424402 -0.0902095 0.900969
   vertex 0 0 1
  endloop
 endfacet
 facet normal -0.207592 -0.0924261 0.973839
  outer loop
   vertex -0.424402 -0.0902095 0.900969
   vertex -0.351019 -0.25503 0.900969
   vertex 0 0 1
  endloop
 endfacet
 facet normal -0.152052 -0.168871 0.973839
  outer loop
   vertex -0.351019 -0.25503 0.900969
   vertex -0.216942 -0.375754 0.900969
   vertex 0 0 1
  endloop
 endfacet
 facet normal -0.0702205 -0.216116 0.973839
  outer loop
   vertex -0.216942 -0.375754 0.900969
   vertex -0.0453532 -0.431507 0.900969
   vertex 0 0 1
  endloop
 endfacet
 facet normal 0.0237528 -0.225993 0.973839
  outer loop
   vertex -0.0453532 -0.431507 0.900969
   vertex 0.134077 -0.412648 0.900969
   vertex 0 0 1
  endloop
 endfacet
 facet normal 0.113619 -0.196794 0.973839
  outer loop
   vertex 0.134077 -0.412648 0.900969
   vertex 0.290325 -0.322438 0.900969
   vertex 0 0 1
  endloop
 endfacet
 facet normal 0.18384 -0.133567 0.973839
  outer loop
   vertex 0.290325 -0.322438 0.900969
   vertex 0.396373 -0.176476 0.900969
   vertex 0 0 1
  endloop
 endfacet
 facet normal 0.222272 -0.0472455 0.973839
  outer loop
   vertex 0.396373 -0.176476 0.900969
   vertex 0.433884 0 0.900969
   vertex 0 0 1
  endloop
 endfacet
 facet normal 0.222272 0.0472455 -0.973839
  outer loop
   vertex 0.433884 0 -0.900969
   vertex 0 0 -1
   vertex 0.396373 0.176476 -0.900969
  endloop
 endfacet
 facet normal 0.18384 0.133567 -0.973839
  outer loop
   vertex 0.396373 0.176476 -0.900969
   vertex 0 0 -1
   vertex 0.290325 0.322438 -0.900969
  endloop
 endfacet
 facet normal 0.113619 0.196794 -0.973839
  outer loop
   vertex 0.290325 0.322438 -0.900969
   vertex 0 0 -1
   vertex 0.134077 0.412648 -0.900969
  endloop
 endfacet
 facet normal 0.0237528 0.225993 -0.973839
  outer loop
   vertex 0.134077 0.412648 -0.900969
   vertex 0 0 -1
   vertex -0.0453532 0.431507 -0.900969
  endloop
 endfacet
 facet normal -0.0702205 0.216116 -0.973839
  outer loop
   vertex -0.0453532 0.431507 -0.900969
   vertex 0 0 -1
   vertex -0.216942 0.375754 -0.900969
  endloop
 endfacet
 facet normal -0.152052 0.168871 -0.973839
  outer loop
   vertex -0.216942 0.375754 -0.900969
   vertex 0 0 -1
   vertex -0.351019 0.25503 -0.900969
  endloop
 endfacet
 facet normal -0.207592 0.0924261 -0.973839
  outer loop
   vertex -0.351019 0.25503 -0.900969
   vertex 0 0 -1
   vertex -0.424402 0.0902095 -0.900969
  endloop
 endfacet
 facet normal -0.227238 0 -0.973839
  outer loop
   vertex -0.424402 0.0902095 -0.900969
   vertex 0 0 -1
   vertex -0.424402 -0.0902095 -0.900969
  endloop
 endfacet
 facet normal -0.207592 -0.0924261 -0.973839
  outer loop
   vertex -0.424402 -0.0902095 -0.900969
   vertex 0 0 -1
   vertex -0.351019 -0.25503 -0.900969
  endloop
 endfacet
 facet normal -0.152052 -0.168871 -0.973839
  outer loop
   vertex -0.351019 -0.25503 -0.900969
   vertex 0 0 -1
   vertex -0.216942 -0.375754 -0.900969
  endloop
 endfacet
 facet normal -0.0702205 -0.216116 -0.973839
  outer loop
   vertex -0.216942 -0.375754 -0.900969
   vertex 0 0 -1
   vertex -0.0453532 -0.431507 -0.900969
  endloop
 endfacet
 facet normal 0.0237528 -0.225993 -0.973839
  outer loop
   vertex -0.0453532 -0.431507 -0.900969
   vertex 0 0 -1
   vertex 0.134077 -0.412648 -0.900969
  endloop
 endfacet
 facet normal 0.113619 -0.196794 -0.973839
  outer loop
   vertex 0.134077 -0.412648 -0.900969
   vertex 0 0 -1
   vertex 0.290325 -0.322438 -0.900969
  endloop
 endfacet
 facet normal 0.18384 -0.133567 -0.973839
  outer loop
   vertex 0.290325 -0.322438 -0.900969
   vertex 0 0 -1
   vertex 0.396373 -0.176476 -0.900969
  endloop
 endfacet
 facet normal 0.222272 -0.0472455 -0.973839
  outer loop
   vertex 0.396373 -0.176476 -0.900969
   vertex 0 0 -1
   vertex 0.433884 0 -0.900969
  endloop
 endfacet
 facet normal 0.618086 0.131378 0.775055
  outer loop
   vertex 0.433884 0 0.900969
   vertex 0.781832 0 0.62349
   vertex 0.714239 0.318 0.62349
  endloop
 endfacet
 facet normal 0.618086 0.131378 0.775055
  outer loop
   vertex 0.433884 0 0.900969
   vertex 0.714239 0.318 0.62349
   vertex 0.396373 0.176476 0.900969
  endloop
 endfacet
 facet normal 0.884888 0.188089 0.42614
  outer loop
   vertex 0.781832 0 0.62349
   vertex 0.974928 0 0.222521
   vertex 0.890641 0.396539 0.222521
  endloop
 endfacet
 facet normal 0.884888 0.188089 0.42614
  outer loop
   vertex 0.781832 0 0.62349
   vertex 0.890641 0.396539 0.222521
   vertex 0.714239 0.318 0.62349
  endloop
 endfacet
 facet normal 0.978148 0.207912 -0
  outer loop
   vertex 0.974928 0 0.222521
   vertex 0.974928 0 -0.222521
   vertex 0.890641 0.396539 -0.222521
  endloop
 endfacet
 facet normal 0.978148 0.207912 -0
  outer loop
   vertex 0.974928 0 0.222521
   vertex 0.890641 0.396539 -0.222521
   vertex 0.890641 0.396539 0.222521
  endloop
 endfacet
 facet normal 0.884888 0.188089 -0.42614
  outer loop
   vertex 0.974928 0 -0.222521
   vertex 0.781832 0 -0.62349
   vertex 0.714239 0.318 -0.62349
  endloop
 endfacet
 facet normal 0.884888 0.188089 -0.42614
  outer loop
   vertex 0.974928 0 -0.222521
   vertex 0.714239 0.318 -0.62349
   vertex 0.890641 0.396539 -0.222521
  endloop
 endfacet
 facet normal 0.618086 0.131378 -0.775055
  outer loop
   vertex 0.781832 0 -0.62349
   vertex 0.433884 0 -0.900969
   vertex 0.396373 0.176476 -0.900969
  endloop
 endfacet
 facet normal 0.618086 0.131378 -0.775055
  outer loop
   vertex 0.781832 0 -0.62349
   vertex 0.396373 0.176476 -0.900969
   vertex 0.714239 0.318 -0.62349
  endloop
 endfacet
 facet normal 0.511213 0.371418 0.775055
  outer loop
   vertex 0.396373 0.176476 0.900969
   vertex 0.714239 0.318 0.62349
   vertex 0.523147 0.581014 0.62349
  endloop
 endfacet
 facet normal 0.511213 0.371418 0.775055
  outer loop
   vertex 0.396373 0.176476 0.900969
   vertex 0.523147 0.581014 0.62349
   vertex 0.290325 0.322438 0.900969
  endloop
 endfacet
 facet normal 0.731883 0.531744 0.42614
  outer loop
   vertex 0.714239 0.318 0.62349
   vertex 0.890641 0.396539 0.222521
   vertex 0.652354 0.724513 0.222521
  endloop
 endfacet
 facet normal 0.731883 0.531744 0.42614
  outer loop
   vertex 0.714239 0.318 0.62349
   vertex 0.652354 0.724513 0.222521
   vertex 0.523147 0.581014 0.62349
  endloop
 endfacet
 facet normal 0.809017 0.587785 -0
  outer loop
   vertex 0.890641 0.396539 0.222521
   vertex 0.890641 0.396539 -0.222521
   vertex 0.652354 0.724513 -0.222521
  endloop
 endfacet
 facet normal 0.809017 0.587785 -0
  outer loop
   vertex 0.890641 0.396539 0.222521
   vertex 0.652354 0.724513 -0.222521
   vertex 0.652354 0.724513 0.222521
  endloop
 endfacet
 facet normal 0.731883 0.531744 -0.42614
  outer loop
   vertex 0.890641 0.396539 -0.222521
   vertex 0.714239 0.318 -0.62349
   vertex 0.523147 0.581014 -0.62349
  endloop
 endfacet
 facet normal 0.731883 0.531744 -0.42614
  outer loop
   vertex 0.890641 0.396539 -0.222521
   vertex 0.523147 0.581014 -0.62349
   vertex 0.652354 0.724513 -0.222521
  endloop
 endfacet
 facet normal 0.511213 0.371418 -0.775055
  outer loop
   vertex 0.714239 0.318 -0.62349
   vertex 0.396373 0.176476 -0.900969
   vertex 0.290325 0.322438 -0.900969
  endloop
 endfacet
 facet normal 0.511213 0.371418 -0.775055
  outer loop
   vertex 0.714239 0.318 -0.62349
   vertex 0.290325 0.322438 -0.900969
   vertex 0.523147 0.581014 -0.62349
  endloop
 endfacet
 facet normal 0.315947 0.547236 0.775055
  outer loop
   vertex 0.290325 0.322438 0.900969
   vertex 0.523147 0.581014 0.62349
   vertex 0.241599 0.743566 0.62349
  endloop
 endfacet
 facet normal 0.315947 0.547236 0.775055
  outer loop
   vertex 0.290325 0.322438 0.900969
   vertex 0.241599 0.743566 0.62349
   vertex 0.134077 0.412648 0.900969
  endloop
 endfacet
 facet normal 0.452329 0.783456 0.42614
  outer loop
   vertex 0.523147 0.581014 0.62349
   vertex 0.652354 0.724513 0.222521
   vertex 0.301269 0.927212 0.222521
  endloop
 endfacet
 facet normal 0.452329 0.783456 0.42614
  outer loop
   vertex 0.523147 0.581014 0.62349
   vertex 0.301269 0.927212 0.222521
   vertex 0.241599 0.743566 0.62349
  endloop
 endfacet
 facet normal 0.5 0.866025 -0
  outer loop
   vertex 0.652354 0.724513 0.222521
   vertex 0.652354 0.724513 -0.222521
   vertex 0.301269 0.927212 -0.222521
  endloop
 endfacet
 facet normal 0.5 0.866025 -0
  outer loop
   vertex 0.652354 0.724513 0.222521
   vertex 0.301269 0.927212 -0.222521
   vertex 0.301269 0.927212 0.222521
  endloop
 endfacet
 facet normal 0.452329 0.783456 -0.42614
  outer loop
   vertex 0.652354 0.724513 -0.222521
   vertex 0.523147 0.581014 -0.62349
   vertex 0.241599 0.743566 -0.62349
  endloop
 endfacet
 facet normal 0.452329 0.783456 -0.42614
  outer loop
   vertex 0.652354 0.724513 -0.222521
   vertex 0.241599 0.743566 -0.62349
   vertex 0.301269 0.927212 -0.222521
  endloop
 endfacet
 facet normal 0.315947 0.547236 -0.775055
  outer loop
   vertex 0.523147 0.581014 -0.62349
   vertex 0.290325 0.322438 -0.900969
   vertex 0.134077 0.412648 -0.900969
  endloop
 endfacet
 facet normal 0.315947 0.547236 -0.775055
  outer loop
   vertex 0.523147 0.581014 -0.62349
   vertex 0.134077 0.412648 -0.900969
   vertex 0.241599 0.743566 -0.62349
  endloop
 endfacet
 facet normal 0.066051 0.628432 0.775055
  outer loop
   vertex 0.134077 0.412648 0.900969
   vertex 0.241599 0.743566 0.62349
   vertex -0.0817236 0.777549 0.62349
  endloop
 endfacet
 facet normal 0.0660509 0.628432 0.775055
  outer loop
   vertex 0.134077 0.412648 0.900969
   vertex -0.0817236 0.777549 0.62349
   vertex -0.0453532 0.431507 0.900969
  endloop
 endfacet
 facet normal 0.0945625 0.899702 0.42614
  outer loop
   vertex 0.241599 0.743566 0.62349
   vertex 0.301269 0.927212 0.222521
   vertex -0.101908 0.969587 0.222521
  endloop
 endfacet
 facet normal 0.0945625 0.899702 0.42614
  outer loop
   vertex 0.241599 0.743566 0.62349
   vertex -0.101908 0.969587 0.222521
   vertex -0.0817236 0.777549 0.62349
  endloop
 endfacet
 facet normal 0.104528 0.994522 -0
  outer loop
   vertex 0.301269 0.927212 0.222521
   vertex 0.301269 0.927212 -0.222521
   vertex -0.101908 0.969587 -0.222521
  endloop
 endfacet
 facet normal 0.104528 0.994522 -0
  outer loop
   vertex 0.301269 0.927212 0.222521
   vertex -0.101908 0.969587 -0.222521
   vertex -0.101908 0.969587 0.222521
  endloop
 endfacet
 facet normal 0.0945625 0.899702 -0.42614
  outer loop
   vertex 0.301269 0.927212 -0.222521
   vertex 0.241599 0.743566 -0.62349
   vertex -0.0817236 0.777549 -0.62349
  endloop
 endfacet
 facet normal 0.0945625 0.899702 -0.42614
  outer loop
   vertex 0.301269 0.927212 -0.222521
   vertex -0.0817236 0.777549 -0.62349
   vertex -0.101908 0.969587 -0.222521
  endloop
 endfacet
 facet normal 0.0660509 0.628432 -0.775055
  outer loop
   vertex 0.241599 0.743566 -0.62349
   vertex 0.134077 0.412648 -0.900969
   vertex -0.0453532 0.431507 -0.900969
  endloop
 endfacet
 facet normal 0.066051 0.628432 -0.775055
  outer loop
   vertex 0.241599 0.743566 -0.62349
   vertex -0.0453532 0.431507 -0.900969
   vertex -0.0817236 0.777549 -0.62349
  endloop
 endfacet
 facet normal -0.195266 0.600967 0.775055
  outer loop
   vertex -0.0453532 0.431507 0.900969
   vertex -0.0817236 0.777549 0.62349
   vertex -0.390916 0.677086 0.62349
  endloop
 endfacet
 facet normal -0.195266 0.600967 0.775055
  outer loop
   vertex -0.0453532 0.431507 0.900969
   vertex -0.390916 0.677086 0.62349
   vertex -0.216942 0.375754 0.900969
  endloop
 endfacet
 facet normal -0.279555 0.86038 0.42614
  outer loop
   vertex -0.0817236 0.777549 0.62349
   vertex -0.101908 0.969587 0.222521
   vertex -0.487464 0.844312 0.222521
  endloop
 endfacet
 facet normal -0.279555 0.86038 0.42614
  outer loop
   vertex -0.0817236 0.777549 0.62349
   vertex -0.487464 0.844312 0.222521
   vertex -0.390916 0.677086 0.62349
  endloop
 endfacet
 facet normal -0.309017 0.951057 0
  outer loop
   vertex -0.101908 0.969587 0.222521
   vertex -0.101908 0.969587 -0.222521
   vertex -0.487464 0.844312 -0.222521
  endloop
 endfacet
 facet normal -0.309017 0.951057 0
  outer loop
   vertex -0.101908 0.969587 0.222521
   vertex -0.487464 0.844312 -0.222521
   vertex -0.487464 0.844312 0.222521
  endloop
 endfacet
 facet normal -0.279555 0.86038 -0.42614
  outer loop
   vertex -0.101908 0.969587 -0.222521
   vertex -0.0817236 0.777549 -0.62349
   vertex -0.390916 0.677086 -0.62349
  endloop
 endfacet
 facet normal -0.279555 0.86038 -0.42614
  outer loop
   vertex -0.101908 0.969587 -0.222521
   vertex -0.390916 0.677086 -0.62349
   vertex -0.487464 0.844312 -0.222521
  endloop
 endfacet
 facet normal -0.195266 0.600967 -0.775055
  outer loop
   vertex -0.0817236 0.777549 -0.62349
   vertex -0.0453532 0.431507 -0.900969
   vertex -0.216942 0.375754 -0.900969
  endloop
 endfacet
 facet normal -0.195266 0.600967 -0.775055
  outer loop
   vertex -0.0817236 0.777549 -0.62349
   vertex -0.216942 0.375754 -0.900969
   vertex -0.390916 0.677086 -0.62349
  endloop
 endfacet
 facet normal -0.42282 0.469589 0.775055
  outer loop
   vertex -0.216942 0.375754 0.900969
   vertex -0.390916 0.677086 0.62349
   vertex -0.632515 0.459549 0.62349
  endloop
 endfacet
 facet normal -0.42282 0.469589 0.775055
  outer loop
   vertex -0.216942 0.375754 0.900969
   vertex -0.632515 0.459549 0.62349
   vertex -0.351019 0.25503 0.900969
  endloop
 endfacet
 facet normal -0.605334 0.672291 0.42614
  outer loop
   vertex -0.390916 0.677086 0.62349
   vertex -0.487464 0.844312 0.222521
   vertex -0.788733 0.573048 0.222521
  endloop
 endfacet
 facet normal -0.605334 0.672291 0.42614
  outer loop
   vertex -0.390916 0.677086 0.62349
   vertex -0.788733 0.573048 0.222521
   vertex -0.632515 0.459549 0.62349
  endloop
 endfacet
 facet normal -0.669131 0.743145 0
  outer loop
   vertex -0.487464 0.844312 0.222521
   vertex -0.487464 0.844312 -0.222521
   vertex -0.788733 0.573048 -0.222521
  endloop
 endfacet
 facet normal -0.669131 0.743145 0
  outer loop
   vertex -0.487464 0.844312 0.222521
   vertex -0.788733 0.573048 -0.222521
   vertex -0.788733 0.573048 0.222521
  endloop
 endfacet
 facet normal -0.605334 0.672291 -0.42614
  outer loop
   vertex -0.487464 0.844312 -0.222521
   vertex -0.390916 0.677086 -0.62349
   vertex -0.632515 0.459549 -0.62349
  endloop
 endfacet
 facet normal -0.605334 0.672291 -0.42614
  outer loop
   vertex -0.487464 0.844312 -0.222521
   vertex -0.632515 0.459549 -0.62349
   vertex -0.788733 0.573048 -0.222521
  endloop
 endfacet
 facet normal -0.42282 0.469589 -0.775055
  outer loop
   vertex -0.390916 0.677086 -0.62349
   vertex -0.216942 0.375754 -0.900969
   vertex -0.351019 0.25503 -0.900969
  endloop
 endfacet
 facet normal -0.42282 0.469589 -0.775055
  outer loop
   vertex -0.390916 0.677086 -0.62349
   vertex -0.351019 0.25503 -0.900969
   vertex -0.632515 0.459549 -0.62349
  endloop
 endfacet
 facet normal -0.577264 0.257014 0.775055
  outer loop
   vertex -0.351019 0.25503 0.900969
   vertex -0.632515 0.459549 0.62349
   vertex -0.764747 0.162552 0.62349
  endloop
 endfacet
 facet normal -0.577264 0.257014 0.775055
  outer loop
   vertex -0.351019 0.25503 0.900969
   vertex -0.764747 0.162552 0.62349
   vertex -0.424402 0.0902095 0.900969
  endloop
 endfacet
 facet normal -0.826446 0.367957 0.42614
  outer loop
   vertex -0.632515 0.459549 0.62349
   vertex -0.788733 0.573048 0.222521
   vertex -0.953623 0.202699 0.222521
  endloop
 endfacet
 facet normal -0.826446 0.367957 0.42614
  outer loop
   vertex -0.632515 0.459549 0.62349
   vertex -0.953623 0.202699 0.222521
   vertex -0.764747 0.162552 0.62349
  endloop
 endfacet
 facet normal -0.913545 0.406737 0
  outer loop
   vertex -0.788733 0.573048 0.222521
   vertex -0.788733 0.573048 -0.222521
   vertex -0.953623 0.202699 -0.222521
  endloop
 endfacet
 facet normal -0.913545 0.406737 0
  outer loop
   vertex -0.788733 0.573048 0.222521
   vertex -0.953623 0.202699 -0.222521
   vertex -0.953623 0.202699 0.222521
  endloop
 endfacet
 facet normal -0.826446 0.367957 -0.42614
  outer loop
   vertex -0.788733 0.573048 -0.222521
   vertex -0.632515 0.459549 -0.62349
   vertex -0.764747 0.162552 -0.62349
  endloop
 endfacet
 facet normal -0.826446 0.367957 -0.42614
  outer loop
   vertex -0.788733 0.573048 -0.222521
   vertex -0.764747 0.162552 -0.62349
   vertex -0.953623 0.202699 -0.222521
  endloop
 endfacet
 facet normal -0.577264 0.257014 -0.775055
  outer loop
   vertex -0.632515 0.459549 -0.62349
   vertex -0.351019 0.25503 -0.900969
   vertex -0.424402 0.0902095 -0.900969
  endloop
 endfacet
 facet normal -0.577264 0.257014 -0.775055
  outer loop
   vertex -0.632515 0.459549 -0.62349
   vertex -0.424402 0.0902095 -0.900969
   vertex -0.764747 0.162552 -0.62349
  endloop
 endfacet
 facet normal -0.631894 0 0.775055
  outer loop
   vertex -0.424402 0.0902095 0.900969
   vertex -0.764747 0.162552 0.62349
   vertex -0.764747 -0.162552 0.62349
  endloop
 endfacet
 facet normal -0.631894 0 0.775055
  outer loop
   vertex -0.424402 0.0902095 0.900969
   vertex -0.764747 -0.162552 0.62349
   vertex -0.424402 -0.0902095 0.900969
  endloop
 endfacet
 facet normal -0.904657 0 0.42614
  outer loop
   vertex -0.764747 0.162552 0.62349
   vertex -0.953623 0.202699 0.222521
   vertex -0.953623 -0.202699 0.222521
  endloop
 endfacet
 facet normal -0.904657 0 0.42614
  outer loop
   vertex -0.764747 0.162552 0.62349
   vertex -0.953623 -0.202699 0.222521
   vertex -0.764747 -0.162552 0.62349
  endloop
 endfacet
 facet normal -1 0 0
  outer loop
   vertex -0.953623 0.202699 0.222521
   vertex -0.953623 0.202699 -0.222521
   vertex -0.953623 -0.202699 -0.222521
  endloop
 endfacet
 facet normal -1 0 0
  outer loop
   vertex -0.953623 0.202699 0.222521
   vertex -0.953623 -0.202699 -0.222521
   vertex -0.953623 -0.202699 0.222521
  endloop
 endfacet
 facet normal -0.904657 -0 -0.42614
  outer loop
   vertex -0.953623 0.202699 -0.222521
   vertex -0.764747 0.162552 -0.62349
   vertex -0.764747 -0.162552 -0.62349
  endloop
 endfacet
 facet normal -0.904657 0 -0.42614
  outer loop
   vertex -0.953623 0.202699 -0.222521
   vertex -0.764747 -0.162552 -0.62349
   vertex -0.953623 -0.202699 -0.222521
  endloop
 endfacet
 facet normal -0.631894 -0 -0.775055
  outer loop
   vertex -0.764747 0.162552 -0.62349
   vertex -0.424402 0.0902095 -0.900969
   vertex -0.424402 -0.0902095 -0.900969
  endloop
 endfacet
 facet normal -0.631894 0 -0.775055
  outer loop
   vertex -0.764747 0.162552 -0.62349
   vertex -0.424402 -0.0902095 -0.900969
   vertex -0.764747 -0.162552 -0.62349
  endloop
 endfacet
 facet normal -0.577264 -0.257014 0.775055
  outer loop
   vertex -0.424402 -0.0902095 0.900969
   vertex -0.764747 -0.162552 0.62349
   vertex -0.632515 -0.459549 0.62349
  endloop
 endfacet
 facet normal -0.577264 -0.257014 0.775055
  outer loop
   vertex -0.424402 -0.0902095 0.900969
   vertex -0.632515 -0.459549 0.62349
   vertex -0.351019 -0.25503 0.900969
  endloop
 endfacet
 facet normal -0.826446 -0.367957 0.42614
  outer loop
   vertex -0.764747 -0.162552 0.62349
   vertex -0.953623 -0.202699 0.222521
   vertex -0.788733 -0.573048 0.222521
  endloop
 endfacet
 facet normal -0.826446 -0.367957 0.42614
  outer loop
   vertex -0.764747 -0.162552 0.62349
   vertex -0.788733 -0.573048 0.222521
   vertex -0.632515 -0.459549 0.62349
  endloop
 endfacet
 facet normal -0.913545 -0.406737 0
  outer loop
   vertex -0.953623 -0.202699 0.222521
   vertex -0.953623 -0.202699 -0.222521
   vertex -0.788733 -0.573048 -0.222521
  endloop
 endfacet
 facet normal -0.913545 -0.406737 0
  outer loop
   vertex -0.953623 -0.202699 0.222521
   vertex -0.788733 -0.573048 -0.222521
   vertex -0.788733 -0.573048 0.222521
  endloop
 endfacet
 facet normal -0.826446 -0.367957 -0.42614
  outer loop
   vertex -0.953623 -0.202699 -0.222521
   vertex -0.764747 -0.162552 -0.62349
   vertex -0.632515 -0.459549 -0.62349
  endloop
 endfacet
 facet normal -0.826446 -0.367957 -0.42614
  outer loop
   vertex -0.953623 -0.202699 -0.222521
   vertex -0.632515 -0.459549 -0.62349
   vertex -0.788733 -0.573048 -0.222521
  endloop
 endfacet
 facet normal -0.577264 -0.257014 -0.775055
  outer loop
   vertex -0.764747 -0.162552 -0.62349
   vertex -0.424402 -0.0902095 -0.900969
   vertex -0.351019 -0.25503 -0.900969
  endloop
 endfacet
 facet normal -0.577264 -0.257014 -0.775055
  outer loop
   vertex -0.764747 -0.162552 -0.62349
   vertex -0.351019 -0.25503 -0.900969
   vertex -0.632515 -0.459549 -0.62349
  endloop
 endfacet
 facet normal -0.42282 -0.469589 0.775055
  outer loop
   vertex -0.351019 -0.25503 0.900969
   vertex -0.632515 -0.459549 0.62349
   vertex -0.390916 -0.677086 0.62349
  endloop
 endfacet
 facet normal -0.42282 -0.469589 0.775055
  outer loop
   vertex -0.351019 -0.25503 0.900969
   vertex -0.390916 -0.677086 0.62349
   vertex -0.216942 -0.375754 0.900969
  endloop
 endfacet
 facet normal -0.605334 -0.672291 0.42614
  outer loop
   vertex -0.632515 -0.459549 0.62349
   vertex -0.788733 -0.573048 0.222521
   vertex -0.487464 -0.844312 0.222521
  endloop
 endfacet
 facet normal -0.605334 -0.672291 0.42614
  outer loop
   vertex -0.632515 -0.459549 0.62349
   vertex -0.487464 -0.844312 0.222521
   vertex -0.390916 -0.677086 0.62349
  endloop
 endfacet
 facet normal -0.669131 -0.743145 0
  outer loop
   vertex -0.788733 -0.573048 0.222521
   vertex -0.788733 -0.573048 -0.222521
   vertex -0.487464 -0.844312 -0.222521
  endloop
 endfacet
 facet normal -0.669131 -0.743145 0
  outer loop
   vertex -0.788733 -0.573048 0.222521
   vertex -0.487464 -0.844312 -0.222521
   vertex -0.487464 -0.844312 0.222521
  endloop
 endfacet
 facet normal -0.605334 -0.672291 -0.42614
  outer loop
   vertex -0.788733 -0.573048 -0.222521
   vertex -0.632515 -0.459549 -0.62349
   vertex -0.390916 -0.677086 -0.62349
  endloop
 endfacet
 facet normal -0.605334 -0.672291 -0.42614
  outer loop
   vertex -0.788733 -0.573048 -0.222521
   vertex -0.390916 -0.677086 -0.62349
   vertex -0.487464 -0.844312 -0.222521
  endloop
 endfacet
 facet normal -0.42282 -0.469589 -0.775055
  outer loop
   vertex -0.632515 -0.459549 -0.62349
   vertex -0.351019 -0.25503 -0.900969
   vertex -0.216942 -0.375754 -0.900969
  endloop
 endfacet
 facet normal -0.42282 -0.469589 -0.775055
  outer loop
   vertex -0.632515 -0.459549 -0.62349
   vertex -0.216942 -0.375754 -0.900969
   vertex -0.390916 -0.677086 -0.62349
  endloop
 endfacet
 facet normal -0.195266 -0.600967 0.775055
  outer loop
   vertex -0.216942 -0.375754 0.900969
   vertex -0.390916 -0.677086 0.62349
   vertex -0.0817236 -0.777549 0.62349
  endloop
 endfacet
 facet normal -0.195266 -0.600967 0.775055
  outer loop
   vertex -0.216942 -0.375754 0.900969
   vertex -0.0817236 -0.777549 0.62349
   vertex -0.0453532 -0.431507 0.900969
  endloop
 endfacet
 facet normal -0.279555 -0.86038 0.42614
  outer loop
   vertex -0.390916 -0.677086 0.62349
   vertex -0.487464 -0.844312 0.222521
   vertex -0.101908 -0.969587 0.222521
  endloop
 endfacet
 facet normal -0.279555 -0.86038 0.42614
  outer loop
   vertex -0.390916 -0.677086 0.62349
   vertex -0.101908 -0.969587 0.222521
   vertex -0.0817236 -0.777549 0.62349
  endloop
 endfacet
 facet normal -0.309017 -0.951057 0
  outer loop
   vertex -0.487464 -0.844312 0.222521
   vertex -0.487464 -0.844312 -0.222521
   vertex -0.101908 -0.969587 -0.222521
  endloop
 endfacet
 facet normal -0.309017 -0.951057 0
  outer loop
   vertex -0.487464 -0.844312 0.222521
   vertex -0.101908 -0.969587 -0.222521
   vertex -0.101908 -0.969587 0.222521
  endloop
 endfacet
 facet normal -0.279555 -0.86038 -0.42614
  outer loop
   vertex -0.487464 -0.844312 -0.222521
   vertex -0.390916 -0.677086 -0.62349
   vertex -0.0817236 -0.777549 -0.62349
  endloop
 endfacet
 facet normal -0.279555 -0.86038 -0.42614
  outer loop
   vertex -0.487464 -0.844312 -0.222521
   vertex -0.0817236 -0.777549 -0.62349
   vertex -0.101908 -0.969587 -0.222521
  endloop
 endfacet
 facet normal -0.195266 -0.600967 -0.775055
  outer loop
   vertex -0.390916 -0.677086 -0.62349
   vertex -0.216942 -0.375754 -0.900969
   vertex -0.0453532 -0.431507 -0.900969
  endloop
 endfacet
 facet normal -0.195266 -0.600967 -0.775055
  outer loop
   vertex -0.390916 -0.677086 -0.62349
   vertex -0.0453532 -0.431507 -0.900969
   vertex -0.0817236 -0.777549 -0.62349
  endloop
 endfacet
 facet normal 0.066051 -0.628432 0.775055
  outer loop
   vertex -0.0453532 -0.431507 0.900969
   vertex -0.0817236 -0.777549 0.62349
   vertex 0.241599 -0.743566 0.62349
  endloop
 endfacet
 facet normal 0.0660509 -0.628432 0.775055
  outer loop
   vertex -0.0453532 -0.431507 0.900969
   vertex 0.241599 -0.743566 0.62349
   vertex 0.134077 -0.412648 0.900969
  endloop
 endfacet
 facet normal 0.0945625 -0.899702 0.42614
  outer loop
   vertex -0.0817236 -0.777549 0.62349
   vertex -0.101908 -0.969587 0.222521
   vertex 0.301269 -0.927212 0.222521
  endloop
 endfacet
 facet normal 0.0945625 -0.899702 0.42614
  outer loop
   vertex -0.0817236 -0.777549 0.62349
   vertex 0.301269 -0.927212 0.222521
   vertex 0.241599 -0.743566 0.62349
  endloop
 endfacet
 facet normal 0.104528 -0.994522 0
  outer loop
   vertex -0.101908 -0.969587 0.222521
   vertex -0.101908 -0.969587 -0.222521
   vertex 0.301269 -0.927212 -0.222521
  endloop
 endfacet
 facet normal 0.104528 -0.994522 0
  outer loop
   vertex -0.101908 -0.969587 0.222521
   vertex 0.301269 -0.927212 -0.222521
   vertex 0.301269 -0.927212 0.222521
  endloop
 endfacet
 facet normal 0.0945625 -0.899702 -0.42614
  outer loop
   vertex -0.101908 -0.969587 -0.222521
   vertex -0.0817236 -0.777549 -0.62349
   vertex 0.241599 -0.743566 -0.62349
  endloop
 endfacet
 facet normal 0.0945625 -0.899702 -0.42614
  outer loop
   vertex -0.101908 -0.969587 -0.222521
   vertex 0.241599 -0.743566 -0.62349
   vertex 0.301269 -0.927212 -0.222521
  endloop
 endfacet
 facet normal 0.0660509 -0.628432 -0.775055
  outer loop
   vertex -0.0817236 -0.777549 -0.62349
   vertex -0.0453532 -0.431507 -0.900969
   vertex 0.134077 -0.412648 -0.900969
  endloop
 endfacet
 facet normal 0.066051 -0.628432 -0.775055
  outer loop
   vertex -0.0817236 -0.777549 -0.62349
   vertex 0.134077 -0.412648 -0.900969
   vertex 0.241599 -0.743566 -0.62349
  endloop
 endfacet
 facet normal 0.315947 -0.547236 0.775055
  outer loop
   vertex 0.134077 -0.412648 0.900969
   vertex 0.241599 -0.743566 0.62349
   vertex 0.523147 -0.581014 0.62349
  endloop
 endfacet
 facet normal 0.315947 -0.547236 0.775055
  outer loop
   vertex 0.134077 -0.412648 0.900969
   vertex 0.523147 -0.581014 0.62349
   vertex 0.290325 -0.322438 0.900969
  endloop
 endfacet
 facet normal 0.452329 -0.783456 0.42614
  outer loop
   vertex 0.241599 -0.743566 0.62349
   vertex 0.301269 -0.927212 0.222521
   vertex 0.652354 -0.724513 0.222521
  endloop
 endfacet
 facet normal 0.452329 -0.783456 0.42614
  outer loop
   vertex 0.241599 -0.743566 0.62349
   vertex 0.652354 -0.724513 0.222521
   vertex 0.523147 -0.581014 0.62349
  endloop
 endfacet
 facet normal 0.5 -0.866025 0
  outer loop
   vertex 0.301269 -0.927212 0.222521
   vertex 0.301269 -0.927212 -0.222521
   vertex 0.652354 -0.724513 -0.222521
  endloop
 endfacet
 facet normal 0.5 -0.866025 0
  outer loop
   vertex 0.301269 -0.927212 0.222521
   vertex 0.652354 -0.724513 -0.222521
   vertex 0.652354 -0.724513 0.222521
  endloop
 endfacet
 facet normal 0.452329 -0.783456 -0.42614
  outer loop
   vertex 0.301269 -0.927212 -0.222521
   vertex 0.241599 -0.743566 -0.62349
   vertex 0.523147 -0.581014 -0.62349
  endloop
 endfacet
 facet normal 0.452329 -0.783456 -0.42614
  outer loop
   vertex 0.301269 -0.927212 -0.222521
   vertex 0.523147 -0.581014 -0.62349
   vertex 0.652354 -0.724513 -0.222521
  endloop
 endfacet
 facet normal 0.315947 -0.547236 -0.775055
  outer loop
   vertex 0.241599 -0.743566 -0.62349
   vertex 0.134077 -0.412648 -0.900969
   vertex 0.290325 -0.322438 -0.900969
  endloop
 endfacet
 facet normal 0.315947 -0.547236 -0.775055
  outer loop
   vertex 0.241599 -0.743566 -0.62349
   vertex 0.290325 -0.322438 -0.900969
   vertex 0.523147 -0.581014 -0.62349
  endloop
 endfacet
 facet normal 0.511213 -0.371418 0.775055
  outer loop
   vertex 0.290325 -0.322438 0.900969
   vertex 0.523147 -0.581014 0.62349
   vertex 0.714239 -0.318 0.62349
  endloop
 endfacet
 facet normal 0.511213 -0.371418 0.775055
  outer loop
   vertex 0.290325 -0.322438 0.900969
   vertex 0.714239 -0.318 0.62349
   vertex 0.396373 -0.176476 0.900969
  endloop
 endfacet
 facet normal 0.731883 -0.531744 0.42614
  outer loop
   vertex 0.523147 -0.581014 0.62349
   vertex 0.652354 -0.724513 0.222521
   vertex 0.890641 -0.396539 0.222521
  endloop
 endfacet
 facet normal 0.731883 -0.531744 0.42614
  outer loop
   vertex 0.523147 -0.581014 0.62349
   vertex 0.890641 -0.396539 0.222521
   vertex 0.714239 -0.318 0.62349
  endloop
 endfacet
 facet normal 0.809017 -0.587785 0
  outer loop
   vertex 0.652354 -0.724513 0.222521
   vertex 0.652354 -0.724513 -0.222521
   vertex 0.890641 -0.396539 -0.222521
  endloop
 endfacet
 facet normal 0.809017 -0.587785 0
  outer loop
   vertex 0.652354 -0.724513 0.222521
   vertex 0.890641 -0.396539 -0.222521
   vertex 0.890641 -0.396539 0.222521
  endloop
 endfacet
 facet normal 0.731883 -0.531744 -0.42614
  outer loop
   vertex 0.652354 -0.724513 -0.222521
   vertex 0.523147 -0.581014 -0.62349
   vertex 0.714239 -0.318 -0.62349
  endloop
 endfacet
 facet normal 0.731883 -0.531744 -0.42614
  outer loop
   vertex 0.652354 -0.724513 -0.222521
   vertex 0.714239 -0.318 -0.62349
   vertex 0.890641 -0.396539 -0.222521
  endloop
 endfacet
 facet normal 0.511213 -0.371418 -0.775055
  outer loop
   vertex 0.523147 -0.581014 -0.62349
   vertex 0.290325 -0.322438 -0.900969
   vertex 0.396373 -0.176476 -0.900969
  endloop
 endfacet
 facet normal 0.511213 -0.371418 -0.775055
  outer loop
   vertex 0.523147 -0.581014 -0.62349
   vertex 0.396373 -0.176476 -0.900969
   vertex 0.714239 -0.318 -0.62349
  endloop
 endfacet
 facet normal 0.618086 -0.131378 0.775055
  outer loop
   vertex 0.396373 -0.176476 0.900969
   vertex 0.714239 -0.318 0.62349
   vertex 0.781832 0 0.62349
  endloop
 endfacet
 facet normal 0.618086 -0.131378 0.775055
  outer loop
   vertex 0.396373 -0.176476 0.900969
   vertex 0.781832 0 0.62349
   vertex 0.433884 0 0.900969
  endloop
 endfacet
 facet normal 0.884888 -0.188089 0.42614
  outer loop
   vertex 0.714239 -0.318 0.62349
   vertex 0.890641 -0.396539 0.222521
   vertex 0.974928 0 0.222521
  endloop
 endfacet
 facet normal 0.884888 -0.188089 0.42614
  outer loop
   vertex 0.714239 -0.318 0.62349
   vertex 0.974928 0 0.222521
   vertex 0.781832 0 0.62349
  endloop
 endfacet
 facet normal 0.978148 -0.207912 0
  outer loop
   vertex 0.890641 -0.396539 0.222521
   vertex 0.890641 -0.396539 -0.222521
   vertex 0.974928 0 -0.222521
  endloop
 endfacet
 facet normal 0.978148 -0.207912 0
  outer loop
   vertex 0.890641 -0.396539 0.222521
   vertex 0.974928 0 -0.222521
   vertex 0.974928 0 0.222521
  endloop
 endfacet
 facet normal 0.884888 -0.188089 -0.42614
  outer loop
   vertex 0.890641 -0.396539 -0.222521
   vertex 0.714239 -0.318 -0.62349
   vertex 0.781832 0 -0.62349
  endloop
 endfacet
 facet normal 0.884888 -0.188089 -0.42614
  outer loop
   vertex 0.890641 -0.396539 -0.222521
   vertex 0.781832 0 -0.62349
   vertex 0.974928 0 -0.222521
  endloop
 endfacet
 facet normal 0.618086 -0.131378 -0.775055
  outer loop
   vertex 0.714239 -0.318 -0.62349
   vertex 0.396373 -0.176476 -0.900969
   vertex 0.433884 0 -0.900969
  endloop
 endfacet
 facet normal 0.618086 -0.131378 -0.775055
  outer loop
   vertex 0.714239 -0.318 -0.62349
   vertex 0.433884 0 -0.900969
   vertex 0.781832 0 -0.62349
  endloop
 endfacet
endsolid
